<?xml version="1.0" encoding="UTF-8" standalone="no"?>
<svg
   xmlns:dc="http://purl.org/dc/elements/1.1/"
   xmlns:cc="http://creativecommons.org/ns#"
   xmlns:rdf="http://www.w3.org/1999/02/22-rdf-syntax-ns#"
   xmlns:svg="http://www.w3.org/2000/svg"
   xmlns="http://www.w3.org/2000/svg"
   xmlns:xlink="http://www.w3.org/1999/xlink"
   xmlns:sodipodi="http://sodipodi.sourceforge.net/DTD/sodipodi-0.dtd"
   xmlns:inkscape="http://www.inkscape.org/namespaces/inkscape"
   id="Capa_1"
   enable-background="new 0 0 280.887 280.887"
   height="512"
   viewBox="0 0 280.887 280.887"
   width="512"
   version="1.1"
   sodipodi:docname="img-11.svg"
   inkscape:version="0.92.3 (2405546, 2018-03-11)">
  <metadata
     id="metadata62">
    <rdf:RDF>
      <cc:Work
         rdf:about="">
        <dc:format>image/svg+xml</dc:format>
        <dc:type
           rdf:resource="http://purl.org/dc/dcmitype/StillImage" />
      </cc:Work>
    </rdf:RDF>
  </metadata>
  <defs
     id="defs60">
    <linearGradient
       id="linearGradient1126">
      <stop
         id="stop1122"
         stop-color="#20d6de"
         offset="0"
         style="stop-color:#209837;stop-opacity:1" />
      <stop
         id="stop1124"
         stop-color="#5e309d"
         offset="1" />
    </linearGradient>
    <linearGradient
       inkscape:collect="always"
       xlink:href="#lg1"
       id="linearGradient1096"
       gradientUnits="userSpaceOnUse"
       gradientTransform="matrix(1,0,0,-0.90677933,0,293.97786)"
       x1="-18.726"
       y1="183.757"
       x2="301.293"
       y2="183.757" />
    <linearGradient
       inkscape:collect="always"
       xlink:href="#lg1"
       id="linearGradient1098"
       gradientUnits="userSpaceOnUse"
       gradientTransform="matrix(1,0,0,-0.90677933,0,293.97786)"
       x1="-18.726"
       y1="66.721"
       x2="301.293"
       y2="66.721" />
    <linearGradient
       inkscape:collect="always"
       xlink:href="#lg1"
       id="linearGradient1100"
       gradientUnits="userSpaceOnUse"
       gradientTransform="matrix(1,0,0,-0.90677933,0,293.97786)"
       x1="-18.726"
       y1="221.208"
       x2="301.293"
       y2="221.208" />
    <linearGradient
       inkscape:collect="always"
       xlink:href="#lg1"
       id="linearGradient1102"
       gradientUnits="userSpaceOnUse"
       gradientTransform="matrix(1,0,0,-1,0,324.2)"
       x1="-18.726"
       y1="202.482"
       x2="301.293"
       y2="202.482" />
    <linearGradient
       inkscape:collect="always"
       xlink:href="#lg1"
       id="linearGradient1104"
       gradientUnits="userSpaceOnUse"
       gradientTransform="matrix(1,0,0,-1,0,324.2)"
       x1="-18.726"
       y1="202.482"
       x2="301.293"
       y2="202.482" />
    <linearGradient
       inkscape:collect="always"
       xlink:href="#lg1"
       id="linearGradient1106"
       gradientUnits="userSpaceOnUse"
       gradientTransform="matrix(1,0,0,-1,0,324.2)"
       x1="-18.726"
       y1="202.482"
       x2="301.293"
       y2="202.482" />
    <linearGradient
       inkscape:collect="always"
       xlink:href="#lg1"
       id="linearGradient1108"
       gradientUnits="userSpaceOnUse"
       gradientTransform="matrix(1,0,0,-0.90677933,0,293.97786)"
       x1="-18.726"
       y1="165.031"
       x2="301.293"
       y2="165.031" />
    <linearGradient
       inkscape:collect="always"
       xlink:href="#linearGradient1126"
       id="linearGradient1120"
       x1="141.3963"
       y1="262.55231"
       x2="177.3708"
       y2="258.98172"
       gradientUnits="userSpaceOnUse"
       gradientTransform="translate(16.662788,5.9509958)" />
  </defs>
  <sodipodi:namedview
     pagecolor="#ffffff"
     bordercolor="#666666"
     borderopacity="1"
     objecttolerance="10"
     gridtolerance="10"
     guidetolerance="10"
     inkscape:pageopacity="0"
     inkscape:pageshadow="2"
     inkscape:window-width="1366"
     inkscape:window-height="705"
     id="namedview58"
     showgrid="false"
     inkscape:zoom="0.4609375"
     inkscape:cx="256"
     inkscape:cy="256"
     inkscape:window-x="-8"
     inkscape:window-y="-8"
     inkscape:window-maximized="1"
     inkscape:current-layer="Capa_1" />
  <linearGradient
     id="lg1">
    <stop
       offset="0"
       stop-color="#20d6de"
       id="stop2" />
    <stop
       offset="1"
       stop-color="#5e309d"
       id="stop4" />
  </linearGradient>
  <linearGradient
     id="SVGID_1_"
     gradientTransform="matrix(1,0,0,-0.90677933,0,293.97786)"
     gradientUnits="userSpaceOnUse"
     x1="-18.726"
     x2="301.293"
     xlink:href="#lg1"
     y1="183.757"
     y2="183.757" />
  <linearGradient
     id="SVGID_2_"
     gradientTransform="matrix(1,0,0,-0.90677933,0,293.97786)"
     gradientUnits="userSpaceOnUse"
     x1="-18.726"
     x2="301.293"
     xlink:href="#lg1"
     y1="193.12"
     y2="193.12" />
  <linearGradient
     id="SVGID_3_"
     gradientTransform="matrix(1,0,0,-0.90677933,0,293.97786)"
     gradientUnits="userSpaceOnUse"
     x1="-18.726"
     x2="301.293"
     xlink:href="#lg1"
     y1="66.721"
     y2="66.721" />
  <linearGradient
     id="SVGID_5_"
     gradientTransform="matrix(1,0,0,-0.90677933,0,293.97786)"
     gradientUnits="userSpaceOnUse"
     x1="-18.726"
     x2="301.293"
     xlink:href="#lg1"
     y1="260.921"
     y2="260.921" />
  <linearGradient
     id="SVGID_6_"
     gradientTransform="matrix(1,0,0,-0.90677933,0,293.97786)"
     gradientUnits="userSpaceOnUse"
     x1="-18.726"
     x2="301.293"
     xlink:href="#lg1"
     y1="141.624"
     y2="141.624" />
  <linearGradient
     id="SVGID_7_"
     gradientTransform="matrix(1,0,0,-0.90677933,0,293.97786)"
     gradientUnits="userSpaceOnUse"
     x1="-18.726"
     x2="301.293"
     xlink:href="#lg1"
     y1="221.208"
     y2="221.208" />
  <linearGradient
     id="SVGID_8_"
     gradientTransform="matrix(1,0,0,-1,0,324.2)"
     gradientUnits="userSpaceOnUse"
     x1="-18.726"
     x2="301.293"
     xlink:href="#lg1"
     y1="202.482"
     y2="202.482" />
  <linearGradient
     id="SVGID_13_"
     gradientTransform="matrix(1,0,0,-0.90677933,0,293.97786)"
     gradientUnits="userSpaceOnUse"
     x1="-18.726"
     x2="301.293"
     xlink:href="#lg1"
     y1="165.031"
     y2="165.031" />
  <linearGradient
     id="SVGID_15_"
     gradientTransform="matrix(1,0,0,-0.90677933,0,293.97786)"
     gradientUnits="userSpaceOnUse"
     x1="-18.726"
     x2="301.293"
     xlink:href="#lg1"
     y1="125.239"
     y2="125.239" />
  <linearGradient
     id="SVGID_16_"
     gradientTransform="matrix(1,0,0,-0.90677933,0,293.97786)"
     gradientUnits="userSpaceOnUse"
     x1="-18.726"
     x2="301.293"
     xlink:href="#lg1"
     y1="127.579"
     y2="127.579" />
  <linearGradient
     id="SVGID_17_"
     gradientTransform="matrix(1,0,0,-0.90677933,0,293.97786)"
     gradientUnits="userSpaceOnUse"
     x1="-18.726"
     x2="301.293"
     xlink:href="#lg1"
     y1="272.704"
     y2="272.704" />
  <linearGradient
     id="SVGID_18_"
     gradientTransform="matrix(1,0,0,-0.90677933,0,293.97786)"
     gradientUnits="userSpaceOnUse"
     x1="-18.726"
     x2="301.293"
     xlink:href="#lg1"
     y1="244.615"
     y2="244.615" />
  <path
     d="M 229.391,0 H 51.496 C 43.74,0 37.452,5.7018284 37.452,12.734809 V 241.96681 c 0,7.03298 6.288,12.73481 14.044,12.73481 h 177.895 c 7.756,0 14.044,-5.70183 14.044,-12.73481 V 12.734809 C 243.435,5.7018284 237.147,0 229.391,0 Z m 4.681,229.232 h -28.089 v 8.49018 h 28.089 v 4.24463 c 0,2.34402 -2.096,4.24463 -4.681,4.24463 H 51.496 c -2.585,0 -4.681,-1.90061 -4.681,-4.24463 v -4.24463 H 93.629 V 229.232 H 46.814 V 12.734809 c 0,-2.344025 2.096,-4.2446341 4.681,-4.2446341 H 229.39 c 2.585,0 4.681,1.9006091 4.681,4.2446341 V 229.232 Z"
     id="path19"
     style="fill:url(#linearGradient1096);stroke-width:0.95224959"
     inkscape:connector-curvature="0" />
  <path
     d="M 224.709,216.49719 V 21.224984 c 0,-2.344025 -2.096,-4.244634 -4.681,-4.244634 H 60.859 c -2.585,0 -4.681,1.900609 -4.681,4.244634 V 216.49629 c 0,2.34402 2.096,4.24463 4.681,4.24463 h 159.169 c 2.585,9.1e-4 4.681,-1.8997 4.681,-4.24373 z m -9.363,-4.24554 H 65.54 V 25.470525 h 149.806 z"
     id="path21"
     style="fill:url(#SVGID_2_);stroke-width:0.95224959"
     inkscape:connector-curvature="0" />
  <path
     d="m 154.488,233.47663 c 0,-7.03298 -6.288,-12.7348 -14.044,-12.7348 -7.756,0 -14.044,5.70182 -14.044,12.7348 0,7.03299 6.288,12.73481 14.044,12.73481 7.756,0 14.044,-5.70092 14.044,-12.73481 z m -14.045,4.24555 c -2.585,0 -4.681,-1.90061 -4.681,-4.24464 0,-2.34402 2.096,-4.24463 4.681,-4.24463 2.585,0 4.681,1.90061 4.681,4.24463 0.001,2.34403 -2.095,4.24464 -4.681,4.24464 z"
     id="path23"
     style="fill:url(#linearGradient1098);stroke-width:0.95224959"
     inkscape:connector-curvature="0" />
  <path
     d="m 187.258,229.232 h 9.363 v 8.49018 h -9.363 z"
     id="path25"
     style="fill:url(#SVGID_3_);stroke-width:0.95224959"
     inkscape:connector-curvature="0" />
  <path
     d="m 98.31,80.655301 h 28.089 c 2.585,0 4.681,-1.900609 4.681,-4.244634 0.004,-2.839126 1.573,-5.487829 4.181,-7.059277 l 0.037,-0.03355 c 3.131,-1.846203 7.168,-1.846203 10.299,0 l 0.037,0.03355 c 2.604,1.573262 4.169,4.221964 4.171,7.059277 0,2.344025 2.096,4.244634 4.681,4.244634 h 28.089 c 2.585,0 4.681,-1.900609 4.681,-4.244634 -0.004,-14.152105 -7.796,-27.369321 -20.772,-35.233818 -0.033,0 -0.047,-0.05078 -0.075,-0.06801 -15.78,-9.33892 -36.156,-9.33892 -51.936,0 -0.028,0 -0.042,0.04625 -0.075,0.06801 -12.975,7.864497 -20.767,21.081713 -20.772,35.233818 0.003,2.344931 2.099,4.244634 4.684,4.244634 z m 79.29,-8.489268 h -19.025 c -0.746,-2.62966 -2.182,-5.058015 -4.185,-7.076506 l 10.552,-14.352503 c 6.996,5.477854 11.506,13.112029 12.658,21.429009 z M 157.156,46.020865 146.604,60.377902 c -3.989,-1.262237 -8.332,-1.262237 -12.322,0 L 123.73,46.020865 c 10.541,-4.69349 22.885,-4.69349 33.426,0 z m -41.197,4.732481 10.552,14.352503 c -2.006,2.01305 -3.446,4.434151 -4.199,7.059277 h -19.03 c 1.16,-8.310632 5.671,-15.937553 12.663,-21.41178 z"
     id="path27"
     style="fill:url(#SVGID_5_);stroke-width:0.95224959"
     inkscape:connector-curvature="0" />
  <path
     d="m 140.443,203.76148 v -67.9205 h -28.089 v 16.98035 h -9.363 V 127.35081 H 74.903 v 76.41067 z m -18.725,-59.43032 h 9.363 v 50.94014 h -9.363 z m -18.726,16.98035 h 9.363 v 33.9607 h -9.363 z M 84.266,135.84098 h 9.363 v 59.43032 h -9.363 z"
     id="path29"
     style="fill:url(#SVGID_6_);stroke-width:0.95224959"
     inkscape:connector-curvature="0" />
  <path
     d="m 74.903,89.145476 h 74.903 v 8.490175 H 74.903 Z"
     id="path31"
     style="fill:url(#linearGradient1100);stroke-width:0.95224959"
     inkscape:connector-curvature="0" />
  <g
     id="g39"
     style="fill:url(#SVGID_8_)"
     transform="scale(1,0.90677933)">
    <path
       d="m 74.903,117.036 h 32.77 v 9.363 h -32.77 z"
       id="path33"
       inkscape:connector-curvature="0"
       style="fill:url(#linearGradient1102)" />
    <path
       d="m 117.036,117.036 h 51.496 v 9.363 h -51.496 z"
       id="path35"
       inkscape:connector-curvature="0"
       style="fill:url(#linearGradient1104)" />
    <path
       d="m 177.895,117.036 h 28.089 v 9.363 h -28.089 z"
       id="path37"
       inkscape:connector-curvature="0"
       style="fill:url(#linearGradient1106)" />
  </g>
  <path
     d="m 159.169,89.145476 h 46.814 v 8.490175 h -46.814 z"
     id="path41"
     style="fill:url(#SVGID_7_);stroke-width:0.95224959"
     inkscape:connector-curvature="0" />
  <path
     d="m 149.806,123.10618 h 56.177 v 8.49017 h -56.177 z"
     id="path43"
     style="fill:url(#SVGID_1_);stroke-width:0.95224959"
     inkscape:connector-curvature="0" />
  <path
     d="m 149.806,140.08652 h 28.089 v 8.49018 h -28.089 z"
     id="path45"
     style="fill:url(#linearGradient1108);stroke-width:0.95224959"
     inkscape:connector-curvature="0" />
  <path
     d="m 187.258,140.08652 h 18.726 v 8.49018 h -18.726 z"
     id="path47"
     style="fill:url(#SVGID_13_);stroke-width:0.95224959"
     inkscape:connector-curvature="0" />
  <path
     d="m 149.806,203.76148 h 56.177 v -46.69551 h -56.177 z m 9.363,-38.20534 h 37.452 v 29.71516 h -37.452 z"
     id="path49"
     style="fill:url(#SVGID_15_);stroke-width:0.95224959"
     inkscape:connector-curvature="0" />
  <path
     d="m 168.532,174.04632 h 9.363 v 8.49017 h -9.363 z"
     id="path51"
     style="fill:url(#SVGID_16_);stroke-width:0.95224959"
     inkscape:connector-curvature="0" />
  <path
     d="m 84.266,42.449968 h 9.363 V 33.959793 H 79.585 c -2.585,0 -4.681,1.900609 -4.681,4.244634 v 21.22589 h 9.363 V 42.449968 Z"
     id="path53"
     style="fill:url(#SVGID_17_);stroke-width:0.95224959"
     inkscape:connector-curvature="0" />
  <path
     d="m 74.903,67.920492 h 9.363 v 8.490175 h -9.363 z"
     id="path55"
     style="fill:url(#SVGID_18_);stroke-width:0.95224959"
     inkscape:connector-curvature="0" />
  <text
     xml:space="preserve"
     style="font-style:normal;font-weight:normal;font-size:21.94429588px;line-height:1.25;font-family:sans-serif;letter-spacing:0px;word-spacing:0px;fill:#000000;fill-opacity:1;stroke:url(#linearGradient1120);stroke-width:0.54860741"
     x="85.694344"
     y="273.74579"
     id="text1112"><tspan
       sodipodi:role="line"
       id="tspan1110"
       x="85.694344"
       y="273.74579"
       style="stroke:url(#linearGradient1120);stroke-width:0.54860741">Relatórios</tspan></text>
</svg>
