<?xml version="1.0" encoding="UTF-8" standalone="no"?>
<svg
   xmlns:dc="http://purl.org/dc/elements/1.1/"
   xmlns:cc="http://creativecommons.org/ns#"
   xmlns:rdf="http://www.w3.org/1999/02/22-rdf-syntax-ns#"
   xmlns:svg="http://www.w3.org/2000/svg"
   xmlns="http://www.w3.org/2000/svg"
   xmlns:xlink="http://www.w3.org/1999/xlink"
   xmlns:sodipodi="http://sodipodi.sourceforge.net/DTD/sodipodi-0.dtd"
   xmlns:inkscape="http://www.inkscape.org/namespaces/inkscape"
   height="512pt"
   viewBox="0 0 512 512.0005"
   width="512pt"
   version="1.1"
   id="svg9"
   sodipodi:docname="img-12.svg"
   inkscape:version="0.92.3 (2405546, 2018-03-11)">
  <metadata
     id="metadata15">
    <rdf:RDF>
      <cc:Work
         rdf:about="">
        <dc:format>image/svg+xml</dc:format>
        <dc:type
           rdf:resource="http://purl.org/dc/dcmitype/StillImage" />
      </cc:Work>
    </rdf:RDF>
  </metadata>
  <defs
     id="defs13">
    <linearGradient
       inkscape:collect="always"
       xlink:href="#a"
       id="linearGradient835"
       x1="-137.73711"
       y1="383.7612"
       x2="171.32758"
       y2="383.7612"
       gradientUnits="userSpaceOnUse" />
  </defs>
  <sodipodi:namedview
     pagecolor="#ffffff"
     bordercolor="#666666"
     borderopacity="1"
     objecttolerance="10"
     gridtolerance="10"
     guidetolerance="10"
     inkscape:pageopacity="0"
     inkscape:pageshadow="2"
     inkscape:window-width="1366"
     inkscape:window-height="705"
     id="namedview11"
     showgrid="false"
     inkscape:zoom="0.34570313"
     inkscape:cx="341.33333"
     inkscape:cy="341.33333"
     inkscape:window-x="-8"
     inkscape:window-y="-8"
     inkscape:window-maximized="1"
     inkscape:current-layer="svg9" />
  <linearGradient
     id="a"
     gradientUnits="userSpaceOnUse"
     x1=".001"
     x2="512.001"
     y1="256"
     y2="256">
    <stop
       offset="0"
       stop-color="#80d8ff"
       id="stop2" />
    <stop
       offset="1"
       stop-color="#ea80fc"
       id="stop4" />
  </linearGradient>
  <path
     d="m220 0h-200c-11.046875 0-20 8.953125-20 20v200c0 11.046875 8.953125 20 20 20h200c11.046875 0 20-8.953125 20-20v-200c0-11.046875-8.953125-20-20-20zm-20 200h-160v-160h160zm299.65625 73.523438c-7.472656-3.097657-16.078125-1.386719-21.796875 4.332031l-200 200c-5.722656 5.722656-7.433594 14.324219-4.335937 21.796875 3.097656 7.476562 10.386718 12.347656 18.476562 12.347656h200c11.046875 0 20-8.953125 20-20v-200c0-8.089844-4.871094-15.382812-12.34375-18.476562zm-27.65625 198.476562h-131.714844l131.714844-131.714844zm-80-232c66.167969 0 120-53.832031 120-120s-53.832031-120-120-120-120 53.832031-120 120 53.832031 120 120 120zm0-200c44.113281 0 80 35.886719 80 80s-35.886719 80-80 80-80-35.886719-80-80 35.886719-80 80-80zm-157.859375 266.144531-85.855469 85.855469 85.855469 85.855469c7.8125 7.8125 7.8125 20.476562 0 28.285156-7.808594 7.808594-20.472656 7.8125-28.28125 0l-85.859375-85.855469-85.859375 85.859375c-7.808594 7.808594-20.472656 7.808594-28.28125 0-7.8125-7.8125-7.8125-20.476562 0-28.285156l85.855469-85.859375-85.855469-85.855469c-7.8125-7.8125-7.8125-20.476562 0-28.285156 7.808594-7.8125 20.472656-7.8125 28.28125 0l85.859375 85.855469 85.859375-85.859375c7.808594-7.808594 20.472656-7.808594 28.28125 0 7.8125 7.8125 7.8125 20.476562 0 28.289062zm0 0"
     fill="url(#a)"
     id="path7" />
  <text
     xml:space="preserve"
     style="font-style:normal;font-weight:normal;font-size:58.86946106px;line-height:1.25;font-family:sans-serif;letter-spacing:0px;word-spacing:0px;fill:url(#linearGradient835);fill-opacity:1.0;stroke:none;stroke-width:1.47173643"
     x="-141.04276"
     y="399.47028"
     id="text827"
     transform="matrix(0.55683684,-0.54096593,0.89755383,0.92388634,0,0)"><tspan
       sodipodi:role="line"
       id="tspan825"
       x="-141.04276"
       y="399.47028"
       style="stroke-width:1.47173643;fill-opacity:1.0;fill:url(#linearGradient835)">Categorias</tspan></text>
</svg>
