<?xml version="1.0" encoding="UTF-8" standalone="no"?>
<!-- Created with Inkscape (http://www.inkscape.org/) -->

<svg
   xmlns:dc="http://purl.org/dc/elements/1.1/"
   xmlns:cc="http://creativecommons.org/ns#"
   xmlns:rdf="http://www.w3.org/1999/02/22-rdf-syntax-ns#"
   xmlns:svg="http://www.w3.org/2000/svg"
   xmlns="http://www.w3.org/2000/svg"
   xmlns:sodipodi="http://sodipodi.sourceforge.net/DTD/sodipodi-0.dtd"
   xmlns:inkscape="http://www.inkscape.org/namespaces/inkscape"
   width="280"
   height="280"
   viewBox="0 0 74.083332 74.083335"
   version="1.1"
   id="svg8"
   inkscape:version="0.92.3 (2405546, 2018-03-11)"
   sodipodi:docname="red-pig.svg">
  <defs
     id="defs2" />
  <sodipodi:namedview
     id="base"
     pagecolor="#ffffff"
     bordercolor="#666666"
     borderopacity="1.0"
     inkscape:pageopacity="0.0"
     inkscape:pageshadow="2"
     inkscape:zoom="1.4"
     inkscape:cx="180.81726"
     inkscape:cy="97.689685"
     inkscape:document-units="mm"
     inkscape:current-layer="layer1"
     showgrid="false"
     inkscape:object-paths="false"
     inkscape:snap-nodes="false"
     inkscape:snap-others="false"
     inkscape:window-width="1366"
     inkscape:window-height="705"
     inkscape:window-x="-8"
     inkscape:window-y="-8"
     inkscape:window-maximized="1"
     units="px" />
  <metadata
     id="metadata5">
    <rdf:RDF>
      <cc:Work
         rdf:about="">
        <dc:format>image/svg+xml</dc:format>
        <dc:type
           rdf:resource="http://purl.org/dc/dcmitype/StillImage" />
        <dc:title></dc:title>
      </cc:Work>
    </rdf:RDF>
  </metadata>
  <g
     inkscape:label="Camada 1"
     inkscape:groupmode="layer"
     id="layer1"
     transform="translate(0,-222.91664)">
    <ellipse
       style="opacity:0.92229728;fill:#ff0000;fill-opacity:1;fill-rule:evenodd;stroke:#121212;stroke-width:0.0123927;stroke-miterlimit:4;stroke-dasharray:none;stroke-opacity:1;paint-order:markers fill stroke"
       id="path4547"
       cx="37.217052"
       cy="259.30338"
       rx="31.645769"
       ry="32.32737" />
    <path
       style="fill:#f9f9f9;stroke:#000000;stroke-width:0;stroke-linecap:butt;stroke-linejoin:miter;stroke-miterlimit:4;stroke-dasharray:none;stroke-opacity:1"
       d="m 23.832661,244.28249 7.12023,1.30615 0.131856,-6.40012 3.164546,4.83274 c 13.326496,-0.59233 19.084504,5.40382 20.83327,14.89005 l 3.823828,-3.13476 c 2.242605,-2.41689 1.841428,-3.52433 2.109701,-4.96334 0.527418,-1.04492 1.054846,-1.04492 1.582264,0 -0.387658,2.56474 -0.795262,5.11763 -2.900828,6.66134 l -4.878678,3.39597 c -0.891194,3.93268 -2.635104,7.33742 -6.329095,9.53485 v 4.31028 l -7.515797,0.13061 v -1.95921 l -7.383944,0.13061 -0.131856,1.56737 h -5.010533 v -4.04904 c -4.088762,-1.78466 -5.779746,-4.36105 -6.724662,-7.18379 h -3.164546 l -1.186706,-1.56738 v -5.87765 l 1.845986,-1.56737 h 2.637124 c 0.759814,-1.93228 1.531148,-3.86645 4.35125,-6.13888 z"
       id="path4535"
       inkscape:connector-curvature="0"
       sodipodi:nodetypes="cccccccccccccccccccccccccc" />
    <ellipse
       style="opacity:0.92229728;fill:#ff0000;fill-opacity:1;fill-rule:evenodd;stroke:#121212;stroke-width:0.01299148;stroke-miterlimit:4;stroke-dasharray:none;stroke-opacity:1;paint-order:markers fill stroke"
       id="path4539"
       cx="28.41469"
       cy="252.89397"
       rx="1.8459857"
       ry="1.8939095" />
    <path
       style="fill:#ff0000;stroke:#000000;stroke-width:0;stroke-linecap:round;stroke-linejoin:miter;stroke-miterlimit:4;stroke-dasharray:none;stroke-opacity:1;paint-order:normal"
       d="m 37.390017,248.57628 h 2.343282 l 0.206756,2.38567 c 0.705853,0.0288 1.685533,0.53159 2.756797,1.19286 l -1.24056,2.38566 c -1.285559,-1.25565 -2.908309,-1.74512 -4.135195,-0.87474 -0.350877,0.24893 -0.610934,0.93787 -0.482437,1.4314 0.598418,2.29849 3.693359,1.93995 4.893313,3.49902 1.514254,2.0067 0.993986,4.99615 0.06893,6.04374 -0.88811,1.00571 -2.20544,1.35188 -2.20544,1.35188 l 0.06892,2.3857 -2.412203,-0.0796 0.06892,-2.30614 c -1.465501,-0.1644 -2.99462,-0.89972 -3.445996,-1.66999 l 1.102719,-2.06759 c 3.172275,2.40434 4.963043,0.85362 5.306841,-0.31811 0.425031,-1.44861 -2.289585,-2.3508 -4.548721,-4.13518 -1.64838,-1.30197 -2.297312,-5.77084 0.773604,-6.66276 l 0.880472,-0.25573 z"
       id="path4560"
       inkscape:connector-curvature="0"
       sodipodi:nodetypes="cccccaacsccccccssscc" />
  </g>
</svg>
