<?xml version="1.0" encoding="UTF-8" standalone="no"?>
<!-- Created with Inkscape (http://www.inkscape.org/) -->

<svg
   xmlns:dc="http://purl.org/dc/elements/1.1/"
   xmlns:cc="http://creativecommons.org/ns#"
   xmlns:rdf="http://www.w3.org/1999/02/22-rdf-syntax-ns#"
   xmlns:svg="http://www.w3.org/2000/svg"
   xmlns="http://www.w3.org/2000/svg"
   xmlns:sodipodi="http://sodipodi.sourceforge.net/DTD/sodipodi-0.dtd"
   xmlns:inkscape="http://www.inkscape.org/namespaces/inkscape"
   width="280"
   height="280"
   viewBox="0 0 74.083332 74.083335"
   version="1.1"
   id="svg8"
   inkscape:version="0.92.3 (2405546, 2018-03-11)"
   sodipodi:docname="add-new.svg">
  <defs
     id="defs2" />
  <sodipodi:namedview
     id="base"
     pagecolor="#ffffff"
     bordercolor="#666666"
     borderopacity="1.0"
     inkscape:pageopacity="0.0"
     inkscape:pageshadow="2"
     inkscape:zoom="0.7"
     inkscape:cx="-145.80315"
     inkscape:cy="375.53676"
     inkscape:document-units="mm"
     inkscape:current-layer="layer1"
     showgrid="false"
     units="px"
     inkscape:window-width="1366"
     inkscape:window-height="705"
     inkscape:window-x="-8"
     inkscape:window-y="-8"
     inkscape:window-maximized="1" />
  <metadata
     id="metadata5">
    <rdf:RDF>
      <cc:Work
         rdf:about="">
        <dc:format>image/svg+xml</dc:format>
        <dc:type
           rdf:resource="http://purl.org/dc/dcmitype/StillImage" />
        <dc:title></dc:title>
      </cc:Work>
    </rdf:RDF>
  </metadata>
  <g
     inkscape:label="Camada 1"
     inkscape:groupmode="layer"
     id="layer1"
     transform="translate(0,-222.91665)">
    <path
       style="opacity:0.92229728;fill:#ff0000;fill-opacity:1;fill-rule:evenodd;stroke:#121212;stroke-width:0;stroke-linecap:round;stroke-linejoin:miter;stroke-miterlimit:4;stroke-dasharray:none;stroke-opacity:1;paint-order:stroke fill markers"
       id="path883"
       sodipodi:type="arc"
       sodipodi:cx="37.088997"
       sodipodi:cy="260.33566"
       sodipodi:rx="36.521179"
       sodipodi:ry="36.662739"
       sodipodi:start="5.7037858"
       sodipodi:end="5.6712707"
       d="m 67.649612,240.26202 a 36.521179,36.662739 0 0 1 -10.316726,50.58853 36.521179,36.662739 0 0 1 -50.4753921,-9.94516 36.521179,36.662739 0 0 1 9.4961291,-50.7502 36.521179,36.662739 0 0 1 50.629774,9.12009"
       sodipodi:open="true" />
    <path
       style="fill:#ffffff;stroke:#000000;stroke-width:0;stroke-linecap:butt;stroke-linejoin:miter;stroke-miterlimit:4;stroke-dasharray:none;stroke-opacity:1"
       d="m 55.362034,269.31635 c 0.984871,-2.30259 4.39328,-1.07474 3.76129,1.00999 -1.312912,4.33086 -7.227446,18.37102 -27.329138,15.52471 -8.393123,-2.12208 -15.099979,-7.83754 -17.059958,-14.7696 -1.021229,-3.61189 2.401357,-3.33574 3.122923,-2.48646 1.656284,1.94941 2.863638,12.33866 18.550723,14.27897 13.46082,-1.04664 16.514382,-7.85351 18.95416,-13.55761 z"
       id="path826-3"
       inkscape:connector-curvature="0"
       sodipodi:nodetypes="sscsscs" />
    <path
       style="fill:#ffffff;stroke:#000000;stroke-width:0;stroke-linecap:butt;stroke-linejoin:miter;stroke-miterlimit:4;stroke-dasharray:none;stroke-opacity:1"
       d="m 19.508639,249.48869 c -1.052079,2.27267 -4.422951,0.94524 -3.730001,-1.12003 1.439553,-4.29043 7.763924,-18.15081 27.773343,-14.71529 8.327171,2.36769 14.863258,8.27767 16.618781,15.26431 0.914699,3.64033 -2.498299,3.26377 -3.194609,2.39366 -1.59831,-1.99721 -2.499988,-12.41744 -18.123313,-14.81768 -13.485756,0.65081 -16.737933,7.36505 -19.344201,12.99503 z"
       id="path826-3-3"
       inkscape:connector-curvature="0"
       sodipodi:nodetypes="sscsscs" />
    <path
       style="fill:#ffffff;stroke:#000000;stroke-width:0;stroke-linecap:butt;stroke-linejoin:miter;stroke-miterlimit:4;stroke-dasharray:none;stroke-opacity:1"
       d="m 23.455121,248.99245 c 1.343718,-0.2662 2.343006,2.6045 0.226999,3.00212 l -7.702166,1.44731 c -1.375165,0.25842 -1.646232,-0.42597 -1.774714,-1.1227 l -1.39206,-7.54894 c -0.300557,-1.62987 1.17885,-1.80178 1.812039,-1.86288 0.633194,-0.061 0.971626,0.35681 1.131596,1.17737 l 1.207451,6.1936 z"
       id="path843"
       inkscape:connector-curvature="0"
       sodipodi:nodetypes="ssssszscs" />
    <path
       style="fill:#ffffff;stroke:#000000;stroke-width:0;stroke-linecap:butt;stroke-linejoin:miter;stroke-miterlimit:4;stroke-dasharray:none;stroke-opacity:1"
       d="m 51.363942,270.22363 c -1.324176,0.35071 -2.503149,-2.45099 -0.416553,-2.98174 l 7.595122,-1.93188 c 1.356054,-0.34493 1.669892,0.32093 1.842213,1.00813 l 1.867045,7.4457 c 0.403109,1.60758 -1.06245,1.87278 -1.690504,1.97383 -0.628061,0.10097 -0.992261,-0.2946 -1.203844,-1.10339 l -1.597024,-6.10476 z"
       id="path843-7"
       inkscape:connector-curvature="0"
       sodipodi:nodetypes="ssssszscs" />
    <path
       style="fill:#ffffff;stroke:#000000;stroke-width:0;stroke-linecap:butt;stroke-linejoin:miter;stroke-miterlimit:4;stroke-dasharray:none;stroke-opacity:1"
       d="m 35.554719,271.53622 -0.104195,-20.92804 c -0.0086,-1.7224 4.154349,-1.67174 4.167798,-0.30776 l 0.208395,21.13322 c -1.932318,2.36976 -3.163417,1.51764 -4.271998,0.10258 z"
       id="path860-0"
       inkscape:connector-curvature="0"
       sodipodi:nodetypes="csscc" />
    <path
       style="fill:#ffffff;stroke:#000000;stroke-width:0;stroke-linecap:butt;stroke-linejoin:miter;stroke-miterlimit:4;stroke-dasharray:none;stroke-opacity:1"
       d="m 26.919556,257.78216 20.927847,-0.13749 c 1.722384,-0.0113 1.678346,4.15169 0.31439,4.16731 l -21.132862,0.24201 c -2.372831,-1.92854 -1.52267,-3.161 -0.109371,-4.27183 z"
       id="path860-0-1"
       inkscape:connector-curvature="0"
       sodipodi:nodetypes="csscc" />
  </g>
</svg>
